<svg width="121" height="35" viewBox="0 0 121 35" fill="none" xmlns="http://www.w3.org/2000/svg">
<path fill-rule="evenodd" clip-rule="evenodd" d="M76.2 10.3099L74.2 6.92989L70.65 8.61989L68.65 5.22989L65.1 6.92989L63.11 3.52989L59.56 5.22989L57.56 1.83989L54.01 3.53989L52.02 0.139893L48.46 1.83989L40.93 26.3599L50.08 29.1599C50.4247 28.0547 51.1533 27.1093 52.1342 26.4944C53.1151 25.8796 54.2836 25.6359 55.4285 25.8074C56.5734 25.9789 57.6192 26.5542 58.3769 27.4295C59.1346 28.3048 59.5543 29.4222 59.56 30.5799V30.6799C59.58 31.1199 59.53 31.5599 59.4 31.9999L68.7 34.8499L76.2 10.3099V10.3099Z" fill="#D61920"/>
<path fill-rule="evenodd" clip-rule="evenodd" d="M48.78 24.34C48.5487 24.3017 48.3388 24.1818 48.1883 24.002C48.0379 23.8222 47.9568 23.5944 47.96 23.36V11.36C47.9587 11.2283 47.9836 11.0976 48.0334 10.9757C48.0832 10.8538 48.1568 10.743 48.2499 10.6499C48.343 10.5568 48.4538 10.4832 48.5757 10.4334C48.6977 10.3836 48.8283 10.3586 48.96 10.36H57.63C58.1408 10.3587 58.6469 10.458 59.1194 10.6523C59.5918 10.8465 60.0214 11.132 60.3836 11.4923C60.7457 11.8525 61.0334 12.2806 61.2301 12.7521C61.4268 13.2236 61.5287 13.7291 61.53 14.24V23.36C61.5297 23.5073 61.4969 23.6527 61.434 23.7858C61.371 23.9189 61.2794 24.0365 61.1657 24.1301C61.052 24.2237 60.919 24.2911 60.7763 24.3274C60.6336 24.3637 60.4846 24.368 60.34 24.34C60.1105 24.2996 59.9029 24.1788 59.7545 23.9992C59.6061 23.8196 59.5265 23.593 59.53 23.36V14.25C59.53 13.7461 59.3298 13.2628 58.9735 12.9065C58.6172 12.5502 58.1339 12.35 57.63 12.35H55.74V23.35C55.7408 23.484 55.7146 23.6167 55.6631 23.7404C55.6115 23.8641 55.5357 23.9762 55.44 24.07C55.3261 24.1829 55.1866 24.2664 55.0333 24.3135C54.88 24.3605 54.7176 24.3696 54.56 24.34C54.3287 24.3017 54.1188 24.1818 53.9683 24.002C53.8179 23.8222 53.7368 23.5944 53.74 23.36V12.35H49.96V23.35C49.9609 23.4971 49.9294 23.6426 49.8676 23.7761C49.8059 23.9096 49.7154 24.0279 49.6027 24.1224C49.4901 24.217 49.3579 24.2855 49.2157 24.3231C49.0735 24.3607 48.9247 24.3665 48.78 24.34V24.34ZM63.2 29.57C62.967 29.5315 62.7557 29.4101 62.605 29.2282C62.4543 29.0463 62.3744 28.8161 62.38 28.58C62.3811 28.3176 62.4852 28.0662 62.67 27.88C62.8546 27.6916 63.1062 27.5837 63.37 27.58C64.22 27.58 64.95 27.04 65.19 26.23L66.22 22.8L62.85 11.53C62.8098 11.4039 62.795 11.2712 62.8065 11.1394C62.818 11.0076 62.8555 10.8794 62.9169 10.7622C62.9783 10.645 63.0623 10.5411 63.1641 10.4566C63.2659 10.3722 63.3835 10.3087 63.51 10.27C63.7619 10.2002 64.031 10.2297 64.2617 10.3525C64.4924 10.4753 64.6672 10.682 64.75 10.93L67.25 19.33L69.79 10.93C69.91 10.47 70.42 10.16 70.94 10.26L71.01 10.27C71.55 10.44 71.85 11.01 71.69 11.54L68.22 23.1L67.12 26.8C66.8731 27.5962 66.3837 28.2955 65.72 28.8C65.0449 29.3063 64.2238 29.58 63.38 29.58C63.3198 29.5823 63.2595 29.5789 63.2 29.57" fill="#FEFEFE"/>
<path fill-rule="evenodd" clip-rule="evenodd" d="M2.07999 22.1499H4.03999C4.56247 22.1499 5.06355 21.9423 5.43299 21.5729C5.80244 21.2034 6.00999 20.7023 6.00999 20.1799V14.4099C6.01131 14.1512 5.96166 13.8947 5.86387 13.6552C5.76608 13.4157 5.62208 13.1978 5.44007 13.0139C5.25807 12.8301 5.04163 12.6839 4.80312 12.5836C4.56461 12.4834 4.3087 12.4312 4.04999 12.4299H2.07999V22.1299V22.1499ZM0.849993 24.2099C0.60988 24.1693 0.392202 24.0442 0.236308 23.8571C0.0804134 23.67 -0.00340914 23.4334 -7.18614e-06 23.1899V5.26987C-0.00177478 5.13277 0.0238504 4.99669 0.0753658 4.86962C0.126881 4.74255 0.20325 4.62704 0.299993 4.52987C0.417038 4.40833 0.56215 4.31741 0.722569 4.2651C0.882988 4.21279 1.0538 4.20069 1.21999 4.22987C1.71999 4.32987 2.07999 4.74987 2.07999 5.25987V10.3599H4.03999C4.57137 10.3586 5.09779 10.4621 5.58911 10.6645C6.08042 10.867 6.52696 11.1643 6.90317 11.5396C7.27938 11.9149 7.57786 12.3607 7.78151 12.8515C7.98517 13.3423 8.08999 13.8685 8.08999 14.3999V20.1699C8.08735 21.2405 7.66086 22.2666 6.90379 23.0237C6.14671 23.7807 5.12066 24.2072 4.04999 24.2099H1.03999C0.973161 24.2138 0.906097 24.2105 0.839993 24.1999L0.849993 24.2099Z" fill="#333545"/>
<path fill-rule="evenodd" clip-rule="evenodd" d="M15.14 12.3499C15.0277 12.3303 14.914 12.3203 14.8 12.3199C14.5405 12.3172 14.2832 12.3664 14.043 12.4644C13.8027 12.5625 13.5845 12.7075 13.401 12.891C13.2176 13.0744 13.0726 13.2927 12.9745 13.5329C12.8764 13.7731 12.8273 14.0305 12.83 14.2899V20.2999C12.8287 20.559 12.8787 20.8158 12.9772 21.0554C13.0758 21.295 13.2208 21.5127 13.404 21.6959C13.5872 21.8791 13.8049 22.0241 14.0445 22.1227C14.2842 22.2212 14.5409 22.2712 14.8 22.2699C15.3225 22.2699 15.8235 22.0624 16.193 21.6929C16.5624 21.3235 16.77 20.8224 16.77 20.2999V14.2999C16.77 13.3299 16.08 12.5199 15.14 12.3499V12.3499ZM14.09 24.2999C13.1524 24.135 12.3032 23.6442 11.6921 22.9142C11.081 22.1842 10.7474 21.2619 10.75 20.3099V14.2999C10.7482 13.768 10.8526 13.2411 11.0569 12.75C11.2612 12.259 11.5614 11.8136 11.94 11.4399C12.3155 11.0645 12.7614 10.767 13.2522 10.5645C13.7431 10.362 14.269 10.2585 14.8 10.2599C15.8715 10.2599 16.8991 10.6856 17.6567 11.4432C18.4143 12.2009 18.84 13.2284 18.84 14.2999V20.3099C18.84 21.3899 18.42 22.4099 17.65 23.1799C17.276 23.5546 16.8318 23.8517 16.3427 24.0541C15.8536 24.2566 15.3293 24.3606 14.8 24.3599C14.562 24.3609 14.3244 24.3408 14.09 24.2999V24.2999ZM25.89 12.3599C25.7777 12.3402 25.664 12.3302 25.55 12.3299C25.2905 12.3272 25.0332 12.3764 24.793 12.4744C24.5527 12.5725 24.3345 12.7175 24.151 12.901C23.9676 13.0844 23.8226 13.3027 23.7245 13.5429C23.6264 13.7831 23.5773 14.0405 23.58 14.2999V20.3099C23.5787 20.569 23.6287 20.8258 23.7273 21.0654C23.8258 21.305 23.9708 21.5227 24.154 21.7059C24.3372 21.8891 24.5549 22.0341 24.7945 22.1327C25.0341 22.2312 25.2909 22.2812 25.55 22.2799C25.8091 22.2812 26.0658 22.2312 26.3054 22.1327C26.5451 22.0341 26.7627 21.8891 26.9459 21.7059C27.1291 21.5227 27.2742 21.305 27.3727 21.0654C27.4713 20.8258 27.5213 20.569 27.52 20.3099V14.2999C27.52 13.3399 26.83 12.5299 25.89 12.3599V12.3599ZM24.84 24.2999C23.9042 24.1329 23.0573 23.6412 22.4483 22.9114C21.8392 22.1816 21.507 21.2605 21.51 20.3099V14.2999C21.5116 13.7106 21.6417 13.1287 21.8914 12.5948C22.1411 12.061 22.5043 11.5881 22.9557 11.2091C23.407 10.8301 23.9356 10.5542 24.5046 10.4006C25.0736 10.247 25.6693 10.2195 26.25 10.3199C27.1877 10.4825 28.038 10.9708 28.6508 11.699C29.2637 12.4271 29.5998 13.3482 29.6 14.2999V20.3099C29.6012 20.8441 29.4957 21.3732 29.2896 21.866C29.0836 22.3589 28.7811 22.8056 28.4 23.1799C28.026 23.5546 27.5818 23.8517 27.0927 24.0541C26.6036 24.2566 26.0793 24.3606 25.55 24.3599C25.31 24.3599 25.07 24.3399 24.84 24.2999V24.2999ZM33.11 24.3399C32.8699 24.2994 32.6522 24.1742 32.4963 23.9872C32.3404 23.8001 32.2566 23.5634 32.26 23.3199V5.26991C32.26 4.98991 32.36 4.71991 32.56 4.52991C32.678 4.41347 32.8223 4.3272 32.9807 4.27846C33.1391 4.22971 33.307 4.21992 33.47 4.24991C33.97 4.32991 34.34 4.75991 34.34 5.26991V15.9499L39.12 10.5899C39.36 10.3299 39.72 10.2099 40.08 10.2699C40.2615 10.3003 40.4316 10.3787 40.5725 10.4971C40.7134 10.6155 40.82 10.7694 40.8813 10.943C40.9425 11.1165 40.9562 11.3033 40.9208 11.4839C40.8854 11.6645 40.8022 11.8323 40.68 11.9699L37.07 15.9999L40.8 22.8299C40.8672 22.9451 40.9106 23.0726 40.9278 23.2048C40.9449 23.337 40.9355 23.4714 40.9 23.5999C40.8613 23.7324 40.7962 23.8556 40.7086 23.9622C40.6209 24.0688 40.5125 24.1564 40.39 24.2199C40.1783 24.3416 39.9302 24.3842 39.69 24.3399C39.5406 24.3147 39.3986 24.2568 39.2741 24.1703C39.1497 24.0839 39.0458 23.9711 38.97 23.8399L35.61 17.6599L34.33 19.0699V23.3199C34.33 23.5957 34.2204 23.8603 34.0254 24.0553C33.8303 24.2503 33.5658 24.3599 33.29 24.3599C33.22 24.3599 33.16 24.3599 33.09 24.3399H33.11ZM78.92 24.3299C78.3576 24.2357 77.8234 24.0172 77.3563 23.6902C76.8892 23.3632 76.501 22.9361 76.22 22.4399C76.0826 22.1968 76.0467 21.9093 76.12 21.6399C76.2 21.3799 76.37 21.1599 76.6 21.0199C76.8135 20.9032 77.061 20.8644 77.3 20.9099C77.6 20.9599 77.87 21.1399 78.02 21.4099C78.29 21.8699 78.72 22.1699 79.25 22.2599C79.5232 22.3074 79.8037 22.2925 80.0704 22.2163C80.3371 22.1401 80.5831 22.0046 80.79 21.8199C81.19 21.4499 81.39 20.9199 81.34 20.3999C81.3289 20.1334 81.2552 19.8732 81.1249 19.6404C80.9946 19.4076 80.8114 19.2088 80.59 19.0599L77.79 17.0699C77.3338 16.7496 76.9539 16.3326 76.6773 15.8486C76.4008 15.3646 76.2344 14.8256 76.19 14.2699C76.1538 13.7093 76.2458 13.1478 76.4589 12.628C76.672 12.1082 77.0007 11.6438 77.42 11.2699C77.8291 10.8896 78.3178 10.6052 78.8506 10.4374C79.3833 10.2697 79.9468 10.2227 80.5 10.2999C81.68 10.4999 82.64 11.1799 83.19 12.1399C83.3225 12.3798 83.357 12.6617 83.2861 12.9265C83.2153 13.1912 83.0446 13.4183 82.81 13.5599C82.5983 13.6816 82.3502 13.7242 82.11 13.6799C81.9606 13.6547 81.8186 13.5968 81.6941 13.5103C81.5697 13.4239 81.4658 13.3111 81.39 13.1799C81.2645 12.9678 81.0937 12.786 80.8896 12.6477C80.6856 12.5094 80.4535 12.4179 80.21 12.3799C79.9608 12.3348 79.7046 12.3484 79.4616 12.4196C79.2186 12.4907 78.9955 12.6175 78.81 12.7899C78.6289 12.9608 78.4876 13.1694 78.396 13.401C78.3044 13.6325 78.2648 13.8814 78.28 14.1299C78.3 14.6199 78.58 15.0999 79 15.3799L81.8 17.3299C82.2753 17.6627 82.6683 18.0997 82.9491 18.6074C83.2298 19.1152 83.3909 19.6804 83.42 20.2599C83.4663 20.8367 83.3774 21.4163 83.1605 21.9528C82.9435 22.4892 82.6043 22.9676 82.17 23.3499C81.7476 23.7424 81.2429 24.0358 80.6929 24.2088C80.1428 24.3818 79.561 24.43 78.99 24.3499L78.91 24.3299H78.92ZM86.95 24.3599C86.7098 24.3177 86.4921 24.1924 86.3349 24.006C86.1777 23.8195 86.091 23.5838 86.09 23.3399V5.28991C86.0887 5.15297 86.1146 5.01713 86.1664 4.89035C86.2182 4.76357 86.2948 4.64839 86.3916 4.55155C86.4885 4.45471 86.6036 4.37815 86.7304 4.32636C86.8572 4.27457 86.993 4.24858 87.13 4.24991L87.33 4.25991C87.83 4.35991 88.17 4.76991 88.17 5.28991V10.3899H90.14C90.6709 10.3886 91.1968 10.4922 91.6876 10.6948C92.1783 10.8973 92.6242 11.1948 92.9996 11.5703C93.3751 11.9457 93.6726 12.3916 93.8752 12.8823C94.0777 13.3731 94.1813 13.899 94.18 14.4299V23.3299C94.1809 23.4809 94.1485 23.6302 94.0852 23.7673C94.022 23.9045 93.9293 24.026 93.8139 24.1233C93.6984 24.2206 93.563 24.2914 93.4172 24.3305C93.2713 24.3697 93.1187 24.3763 92.97 24.3499C92.47 24.2599 92.11 23.8299 92.11 23.3199V14.4199C92.11 14.1617 92.059 13.906 91.9598 13.6675C91.8607 13.4291 91.7155 13.2126 91.5324 13.0304C91.3493 12.8483 91.1321 12.7041 90.8931 12.6062C90.6542 12.5083 90.3982 12.4586 90.14 12.4599H88.17V23.3299C88.1711 23.4819 88.1386 23.6323 88.0748 23.7702C88.0109 23.9082 87.9173 24.0303 87.8007 24.1278C87.6841 24.2253 87.5473 24.2958 87.4002 24.3342C87.2532 24.3726 87.0994 24.378 86.95 24.3499V24.3599ZM101.23 12.3699C100.947 12.3185 100.655 12.3301 100.377 12.404C100.099 12.4779 99.84 12.6123 99.6195 12.7975C99.3989 12.9827 99.2219 13.2143 99.101 13.4757C98.9801 13.7371 98.9183 14.0219 98.92 14.3099V20.3199C98.9187 20.5781 98.9684 20.8341 99.0663 21.073C99.1642 21.312 99.3084 21.5292 99.4905 21.7123C99.6727 21.8954 99.8892 22.0406 100.128 22.1398C100.366 22.2389 100.622 22.2899 100.88 22.2899C101.4 22.2899 101.9 22.0899 102.27 21.7199C102.455 21.5371 102.602 21.319 102.702 21.0786C102.801 20.8381 102.852 20.5802 102.85 20.3199V14.2999C102.85 13.3399 102.17 12.5199 101.22 12.3599L101.23 12.3699ZM100.17 24.2899C99.2351 24.125 98.3884 23.6353 97.7791 22.9072C97.1699 22.1791 96.8373 21.2593 96.84 20.3099V14.2999C96.8401 13.7097 96.9692 13.1267 97.2183 12.5916C97.4673 12.0565 97.8303 11.5824 98.2818 11.2023C98.7334 10.8222 99.2625 10.5454 99.8322 10.3913C100.402 10.2371 100.998 10.2094 101.58 10.3099C102.519 10.4728 103.371 10.9626 103.984 11.6928C104.597 12.423 104.932 13.3465 104.93 14.2999V20.3099C104.93 20.8425 104.825 21.3698 104.618 21.861C104.412 22.3521 104.11 22.7971 103.73 23.1699C103.271 23.6305 102.708 23.973 102.088 24.1681C101.468 24.3631 100.81 24.4049 100.17 24.2899" fill="#333545"/>
<path fill-rule="evenodd" clip-rule="evenodd" d="M120.9 11.5398C120.934 11.4128 120.943 11.2802 120.926 11.1498C120.909 11.0194 120.866 10.8937 120.8 10.7798C120.724 10.6584 120.625 10.5534 120.509 10.471C120.392 10.3885 120.26 10.3303 120.12 10.2998C119.862 10.251 119.595 10.3026 119.374 10.4438C119.153 10.585 118.994 10.8054 118.93 11.0598C118.93 11.1098 117.81 15.6198 116.93 19.0498L116.91 19.1198L116.89 19.0498L114.89 11.0698C114.851 10.875 114.754 10.6967 114.611 10.559C114.468 10.4213 114.286 10.3308 114.09 10.2998C114.031 10.2881 113.97 10.2814 113.91 10.2798C113.45 10.2798 113.05 10.5998 112.92 11.0598C112.91 11.1098 111.79 15.6198 110.92 19.0498L110.9 19.1198L110.88 19.0498C110.03 15.6198 108.88 11.1098 108.88 11.0598C108.833 10.8684 108.731 10.6947 108.588 10.5599C108.444 10.425 108.264 10.3346 108.07 10.2998C107.904 10.2704 107.732 10.2828 107.572 10.3359C107.411 10.389 107.267 10.4812 107.151 10.6042C107.034 10.7272 106.951 10.8771 106.907 11.0404C106.863 11.2037 106.861 11.3753 106.9 11.5398L109.91 23.5698C109.967 23.7902 110.095 23.9859 110.273 24.1268C110.452 24.2677 110.672 24.3461 110.9 24.3498C111.39 24.3498 111.78 24.0298 111.88 23.5698L113.88 15.5798L113.91 15.5098L113.93 15.5798C114.81 19.0498 115.93 23.5798 115.93 23.5798C115.99 23.796 116.117 23.9874 116.293 24.1259C116.47 24.2645 116.686 24.3429 116.91 24.3498C117.14 24.357 117.366 24.2827 117.547 24.14C117.728 23.9974 117.853 23.7955 117.9 23.5698L120.9 11.5398V11.5398Z" fill="#333545"/>
</svg>
